<svg width="452" height="144" viewBox="0 0 452 144" fill="none" xmlns="http://www.w3.org/2000/svg">
<path fill-rule="evenodd" clip-rule="evenodd" d="M72 0C111.765 0 144 32.2355 144 72C144 111.765 111.765 144 72 144C32.2355 144 0 111.765 0 72C0 32.2355 32.2355 0 72 0ZM72 20.5007C43.5573 20.5007 20.5 43.5577 20.5 72C20.5 100.442 43.5573 123.499 72 123.499C100.443 123.499 123.5 100.442 123.5 72C123.5 43.5577 100.443 20.5007 72 20.5007Z" fill="white"/>
<path d="M226 0C231.661 0 236.25 4.58908 236.25 10.25C236.25 15.9109 231.661 20.5 226 20.5V20.5007C197.557 20.5007 174.5 43.5577 174.5 72C174.5 100.442 197.557 123.499 226 123.499V123.5C231.661 123.5 236.25 128.089 236.25 133.75C236.25 139.411 231.661 144 226 144C186.235 144 154 111.765 154 72C154 32.2355 186.235 0 226 0Z" fill="white"/>
<path d="M307.25 0C312.221 8.37538e-07 316.25 4.02944 316.25 9V11C316.25 15.9706 312.221 20 307.25 20H291.5V135C291.5 139.971 287.471 144 282.5 144H280C275.029 144 271 139.971 271 135V20H255.25C250.279 20 246.25 15.9706 246.25 11V9C246.25 4.02944 250.279 2.73811e-07 255.25 0H307.25Z" fill="white"/>
<path fill-rule="evenodd" clip-rule="evenodd" d="M380 0C419.765 0 452 32.2355 452 72C452 111.765 419.765 144 380 144C340.235 144 308 111.765 308 72C308 32.2355 340.235 0 380 0ZM380 20.5007C351.557 20.5007 328.5 43.5577 328.5 72C328.5 100.442 351.557 123.499 380 123.499C408.443 123.499 431.5 100.442 431.5 72C431.5 43.5577 408.443 20.5007 380 20.5007Z" fill="white"/>
<path d="M246.25 9C246.25 4.02944 250.279 0 255.25 0H271V20H255.25C250.279 20 246.25 15.9706 246.25 11V9Z" fill="#FFB108"/>
</svg>
